<?xml version="1.0" standalone="no"?>
<!DOCTYPE svg PUBLIC "-//W3C//DTD SVG 20010904//EN"
 "http://www.w3.org/TR/2001/REC-SVG-20010904/DTD/svg10.dtd">
<svg version="1.0" xmlns="http://www.w3.org/2000/svg"
 width="184.000000pt" height="184.000000pt" viewBox="0 0 184.000000 184.000000"
 preserveAspectRatio="xMidYMid meet">
<metadata>
Created by potrace 1.14, written by Peter Selinger 2001-2017
</metadata>
<g transform="translate(0.000000,184.000000) scale(0.100000,-0.100000)"
fill="#000000" stroke="none">
<path d="M730 1795 c-335 -75 -601 -337 -681 -670 -23 -97 -27 -264 -9 -362
45 -249 198 -469 425 -610 111 -70 255 -112 405 -120 177 -9 335 27 490 114
118 66 267 215 333 333 87 155 123 313 114 490 -20 367 -261 681 -615 800 -90
31 -108 33 -247 36 -105 3 -169 -1 -215 -11z m376 -105 c43 -11 122 -41 174
-67 169 -84 321 -259 385 -440 119 -341 -7 -714 -312 -921 -75 -51 -189 -98
-287 -119 -86 -18 -261 -12 -351 12 -147 40 -297 136 -406 262 -62 72 -142
234 -163 330 -20 90 -21 268 -2 348 70 295 294 521 591 596 100 25 269 25 371
-1z"/>
<path d="M576 1290 c-46 -44 -69 -74 -80 -107 -49 -142 15 -306 183 -474 149
-149 272 -212 411 -213 59 0 84 5 118 22 45 24 109 82 137 126 16 24 16 28 -2
58 -20 34 -145 108 -183 108 -10 0 -40 -19 -67 -41 -62 -54 -103 -71 -175 -70
-121 0 -218 86 -226 200 -5 75 9 116 64 188 38 49 44 62 38 88 -17 80 -90 175
-134 175 -11 0 -48 -27 -84 -60z"/>
</g>
</svg>
